<svg width="20" height="20" fill="none" xmlns="http://www.w3.org/2000/svg"><path d="M10.213 3.24c.03-.043.06-.085.093-.127a.367.367 0 0 1 .01.009l.02.017a.798.798 0 0 1-.027-.03l9.07 4.63a5.255 5.255 0 0 0-1.097-4.474m-8.07-.026.411.285v.002m-.41-.287.408.288.001-.001m-.41-.287c-.101.147-.195.265-.215.265-.015 0-.133-.147-.266-.33a5.21 5.21 0 0 0-.044-.059l-.018.017-.002.001.018-.02A5.22 5.22 0 0 0 7.862 1.59c-.823-.424-1.536-.595-2.468-.587a6.539 6.539 0 0 0-.804.057L19.38 7.74c-.493 2.186-2.584 4.823-6.169 7.539-.895.676-2.548 1.79-3.21 2.175a46.23 46.23 0 0 1-.583-.368l-.07-.046c-2.372-1.522-4.248-3.03-5.85-4.694C1.748 10.523.81 8.9.554 7.428a6.176 6.176 0 0 1 .004-1.662v-.002c.121-.732.469-1.577.887-2.17a4.975 4.975 0 0 1 3.233-2.041c.12-.022.45-.046.721-.05.85-.007 1.484.145 2.234.531a4.71 4.71 0 0 1 1.693 1.433v.001c.07.096.138.185.193.253.026.033.055.067.081.096a.76.76 0 0 0 .124.107h.002a.51.51 0 0 0 .584-.027.663.663 0 0 0 .071-.063c.03-.03.059-.064.082-.093.049-.06.105-.136.16-.215m0 0c.402-.57 1.177-1.23 1.807-1.53h.001c2.037-.98 4.363-.482 5.851 1.27m0 0 .382-.324-.381.324Zm-8.166 14.251Z" stroke="#fff"/></svg>