<svg width="20" height="20" fill="none" xmlns="http://www.w3.org/2000/svg"><path d="M9.363.094a2.31 2.31 0 0 0-.37.195C8.91.344 6.936 2.301 4.601 4.637 1.18 8.067.34 8.926.258 9.09c-.375.758-.25 1.586.324 2.164.36.355.816.543 1.34.543h.266v3.125c0 2.113.015 3.187.042 3.328.149.71.723 1.355 1.434 1.602.258.09.277.09 2.164.09 1.86 0 1.902 0 2.008-.083.059-.043.144-.129.187-.187.082-.106.082-.156.102-2.715l.02-2.61.117-.19c.148-.239.449-.43.738-.466.11-.015.656-.02 1.215-.011l1.015.011.207.114c.196.11.32.238.442.453.043.082.059.562.074 2.703.02 2.555.02 2.605.102 2.71.043.06.129.145.187.188.106.082.149.082 2.008.082 1.887 0 1.906 0 2.164-.09.711-.245 1.285-.89 1.434-1.601.027-.14.043-1.215.043-3.328v-3.125h.265c.735 0 1.375-.39 1.692-1.035.133-.27.133-.278.133-.801 0-.89.449-.363-4.567-5.375C10.43-.402 10.93.027 10.078.008c-.441-.008-.508 0-.715.086Zm.965 1.117c.23.11 8.395 8.285 8.48 8.484.083.2.075.367-.023.563-.144.3-.265.344-1.02.367-.706.02-.757.035-.945.29-.082.105-.082.148-.101 3.648l-.02 3.542-.11.184c-.058.102-.163.23-.233.281-.274.211-.356.22-1.848.22h-1.383v-2.188c0-1.434-.016-2.254-.043-2.391-.152-.734-.742-1.367-1.5-1.606-.258-.082-.344-.085-1.543-.085-1.398 0-1.469.007-1.969.261-.496.25-.957.867-1.074 1.43-.027.137-.043.957-.043 2.39v2.188H5.57c-1.492 0-1.574-.008-1.847-.219a1.08 1.08 0 0 1-.235-.28l-.11-.184-.019-3.544c-.02-3.5-.02-3.542-.101-3.648-.188-.254-.238-.27-.946-.289-.753-.023-.874-.066-1.019-.367a.622.622 0 0 1-.023-.563c.082-.195 8.25-8.37 8.476-8.484a.615.615 0 0 1 .582 0Z" fill="#fff"/></svg>