<svg width="21" height="20" fill="none" xmlns="http://www.w3.org/2000/svg"><path d="M14.609 2.226a5.28 5.28 0 0 0-.873-.703L14.242.46c.067-.167 0-.367-.167-.433-.166-.067-.367 0-.433.166l-.48 1.01C12.504.887 11.681.66 10.674.66c-1.019 0-1.877.207-2.589.542L7.606.192C7.54.026 7.34-.04 7.173.026c-.167.066-.234.266-.167.433l.503 1.059c-1.433.915-2.119 2.377-2.204 3.443l-.033.367h10.737l-.033-.367c-.067-.7-.467-1.8-1.367-2.735Zm-8.57 2.435c.3-1.434 1.7-3.335 4.668-3.335.943 0 1.724.218 2.358.557.03.032.066.06.11.077.02.02.052.028.082.03 1.194.715 1.826 1.858 2.019 2.67H6.039ZM2.971 5.995c-.934 0-1.667.733-1.667 1.667v4.668c0 .934.733 1.668 1.667 1.668s1.667-.734 1.667-1.668V7.662c0-.934-.733-1.667-1.667-1.667Zm1 6.335c0 .567-.433 1-1 1s-1-.433-1-1V7.662c0-.567.433-1 1-1s1 .433 1 1v4.668ZM18.31 5.995c-.933 0-1.667.733-1.667 1.667v4.668c0 .934.734 1.668 1.667 1.668.934 0 1.668-.734 1.668-1.668V7.662c0-.934-.734-1.667-1.668-1.667Zm1 6.335c0 .567-.433 1-1 1s-1-.433-1-1V7.662c0-.567.433-1 1-1s1 .433 1 1v4.668ZM5.305 15.665H6.64v3.001c0 .734.6 1.334 1.334 1.334.733 0 1.334-.6 1.334-1.334v-3.001h2.667v3.001c0 .734.6 1.334 1.334 1.334.734 0 1.334-.6 1.334-1.334v-3.001h1.334v-9.67H5.306v9.67Zm.667-9.004h9.337v8.337h-1.334v3.668c0 .367-.3.667-.667.667a.669.669 0 0 1-.667-.667v-3.668H8.64v3.668c0 .367-.3.667-.667.667a.669.669 0 0 1-.667-.667v-3.668H5.972V6.661Z" fill="#fff"/><path d="M8.973 2.66c-.366 0-.667.3-.667.667 0 .367.3.667.667.667.367 0 .667-.3.667-.667 0-.367-.3-.667-.667-.667ZM12.308 2.66c-.367 0-.667.3-.667.667 0 .367.3.667.667.667.367 0 .667-.3.667-.667 0-.367-.3-.667-.667-.667Z" fill="#fff"/></svg>