<svg width="20" height="20" fill="none" xmlns="http://www.w3.org/2000/svg"><path d="M4.035 12.783c-.043-.07-.907-.972-1.916-2C.492 9.12.265 8.878.152 8.645-.223 7.871.125 6.903.89 6.601c.133-.053 1.091-.217 2.741-.47 1.463-.22 2.585-.408 2.652-.445l-2.249 7.097Zm0 0a.59.59 0 0 1 .07.33l-.07-.33Zm-.327-6.158c.732-.11 1.381-.213 1.856-.292.238-.04.434-.075.577-.102a5.512 5.512 0 0 0 .254-.055h.001a.616.616 0 0 0 .13-.052l.001-.001c.128-.071.27-.201.354-.321l.004-.006.004-.007c.024-.035.05-.087.064-.115l.002-.004.082-.164.262-.541c.213-.444.496-1.04.798-1.679m-4.39 3.34 3.65 11.546a74.586 74.586 0 0 1 1.925-1.044c.16-.08.287-.138.397-.173a.99.99 0 0 1 .32-.05c.09 0 .188.008.32.05.11.035.236.093.395.173.323.162.882.47 1.927 1.044a233.246 233.246 0 0 0 2.14 1.16 15.193 15.193 0 0 0 .214.11l.003.001-.193.462M3.708 6.625c-.824.127-1.473.23-1.931.309-.23.039-.408.071-.536.097-.085.017-.132.028-.154.033-.017.004-.019.004-.01.001h-.003c-.472.187-.732.826-.472 1.363.022.045.062.118.333.411.268.29.725.76 1.541 1.593.506.516.975 1 1.324 1.365a45.66 45.66 0 0 1 .555.59l.046.052.001.002c.008.01.035.041.058.079l.005.008c.113.19.146.392.14.6v.003a4.31 4.31 0 0 1-.04.332l-.09.61c-.077.493-.18 1.144-.295 1.833-.113.69-.216 1.336-.291 1.823a49.487 49.487 0 0 0-.111.766l-.006.045v-.016c0 .681.683 1.123 1.215.92M3.707 6.626l1.28 12.82m3.11-16.159-.452-.213.452.213Zm0 0c.302-.64.59-1.24.812-1.692.11-.226.204-.414.273-.551l.093-.18.01-.02m0 0a.663.663 0 0 0-.004.006L8.873.561l.411.284.001-.001Zm0 0c.091-.124.28-.264.435-.317a.62.62 0 0 1 .11-.02c.059-.005.13-.008.207-.005.327.014.55.144.712.39a.147.147 0 0 0 .01.021l.09.175c.066.135.157.32.265.544.216.447.5 1.041.798 1.675a284.792 284.792 0 0 0 1.05 2.201l.08.163.003.004c.014.028.04.08.064.115l.004.007.004.006c.078.111.217.25.366.327a.624.624 0 0 0 .12.047 5.604 5.604 0 0 0 .256.056c.146.027.345.062.585.103.48.08 1.135.184 1.87.295.913.138 1.563.24 2 .316.219.038.38.068.492.091.1.021.134.032.134.031l-.007-.003c.48.215.715.832.47 1.355-.02.04-.058.109-.293.366s-.635.667-1.345 1.388l-.018.019a127.19 127.19 0 0 0-1.895 1.95c-.139.15-.236.262-.3.36a.897.897 0 0 0-.131.295l-.003.008a1.06 1.06 0 0 0-.02.326c.007.109.024.254.052.452.057.399.164 1.065.352 2.204a223.076 223.076 0 0 1 .394 2.519l.024.18.005.043c-.01.692-.71 1.127-1.23.912l-.19.463m0 0c.892.367 1.92-.376 1.92-1.389 0-.102-.195-1.368-.43-2.81-.375-2.282-.426-2.637-.391-2.78m-1.099 6.979c-.117-.05-1.2-.633-2.405-1.295-2.1-1.155-2.194-1.204-2.401-1.204-.207 0-.305.049-2.401 1.204l8.306-5.684m0 0c.05-.192.05-.192 2.217-2.401 1.416-1.438 1.627-1.67 1.733-1.89.36-.764.031-1.691-.716-2.026-.133-.061-.923-.196-2.75-.474-1.466-.22-2.608-.412-2.674-.449l2.19 7.24ZM4.987 19.445l.003-.002.054-.026.165-.084c.137-.071.321-.17.54-.286.437-.234 1.009-.545 1.607-.875l-2.37 1.273Z" stroke="#fff"/></svg>