<svg width="21" height="20" fill="none" xmlns="http://www.w3.org/2000/svg"><g clip-path="url(#a)" fill="#fff"><path d="M9.799 1.616v8.115h10.774V0L9.8 1.616Zm10.1 7.441h-9.427V2.19L19.9.809v8.248ZM.708 9.832h8.418V1.683L.708 2.93v6.903Zm.673-6.33 7.071-1.044v6.7h-7.07V3.502ZM9.799 18.384 20.573 20v-9.495H9.8v7.879Zm.673-7.206H19.9v8.047l-9.428-1.414v-6.633ZM.708 17.07l8.418 1.247v-7.812H.708v6.566Zm.673-5.892h7.071v6.364l-7.07-1.044v-5.32Z"/></g><defs><clipPath id="a"><path fill="#fff" transform="translate(.64)" d="M0 0h20v20H0z"/></clipPath></defs></svg>